<svg xmlns="http://www.w3.org/2000/svg" viewBox="0 0 193.07 27.85">
  <defs>
    <style>
      .a {
        fill: #282828;
      }

      .b {
        fill: #458083;
      }

      .c {
        fill: #990027;
      }
    </style>
  </defs>
  <g>
    <g>
      <g>
        <path class="a" d="M44.74.82V4.11a5.56,5.56,0,0,0-2.35-.69,3.77,3.77,0,0,0-2.23.64,4.61,4.61,0,0,0-1.54,2,12.33,12.33,0,0,0-.9,3.38,35.68,35.68,0,0,0-.29,4.85q0,10,5.15,10.05a5.57,5.57,0,0,0,2.16-.56v3.34a6,6,0,0,1-3,.73q-8.25,0-8.24-13.46,0-7.29,2-10.83A6.61,6.61,0,0,1,41.66,0,6.27,6.27,0,0,1,44.74.82Z"/>
        <path class="a" d="M71.17,14.62c0,4.78-.53,8.19-1.6,10.21a5.58,5.58,0,0,1-5.36,3,5.71,5.71,0,0,1-5.57-3.25Q57,21.42,57,13.3c0-4.83.52-8.24,1.58-10.25A5.63,5.63,0,0,1,64,.05,5.77,5.77,0,0,1,69.1,2.37a11,11,0,0,1,1.58,4.44A46.3,46.3,0,0,1,71.17,14.62ZM67.34,15q0-7-.64-9.35c-.42-1.54-1.28-2.32-2.58-2.32a2.58,2.58,0,0,0-2.6,2.13q-.63,2.13-.63,8.61a34.7,34.7,0,0,0,.66,8.26,2.63,2.63,0,0,0,2.57,2.19,2.57,2.57,0,0,0,2.53-2A26.85,26.85,0,0,0,67.34,15Z"/>
        <path class="a" d="M84.76.38h3.41l3.64,10.83A97.59,97.59,0,0,1,94.61,21c-.3-2.1-.51-4-.65-5.7s-.22-3.3-.22-4.8V.38h3.68V27.52H94L89.9,15.3c-.38-1.13-.73-2.3-1.07-3.49S88.19,9.36,87.91,8a5.6,5.6,0,0,0-.12-.59l-.18-.81a5.25,5.25,0,0,0,.09.78,3.34,3.34,0,0,1,0,.55l.19,2.76.2,3.36v1.6l.2,11.83H84.76Z"/>
        <path class="a" d="M109.41.38h11.9v3.2h-4.09V27.52h-3.59V3.58h-4.22Z"/>
        <path class="a" d="M133.31.38H143V3.52h-6v8.6h5.38v3.09H137v9.27h6v3h-9.72Z"/>
        <path class="a" d="M156.36.38h3.41l3.63,10.83A97.59,97.59,0,0,1,166.2,21q-.44-3.15-.65-5.7t-.21-4.8V.38H169V27.52h-3.43L161.48,15.3c-.38-1.13-.73-2.3-1.06-3.49s-.65-2.45-.93-3.77a3.28,3.28,0,0,0-.11-.59c0-.23-.12-.51-.19-.81q.06.45.09.78a1.81,1.81,0,0,0,.05.55l.2,2.76.19,3.36v1.6L160,27.52h-3.6Z"/>
      </g>
      <path class="a" d="M181.17.38h11.9v3.2H189V27.52h-3.59V3.58h-4.22Z"/>
    </g>
    <rect class="b" y="10.52" width="7" height="7"/>
    <rect class="c" x="12" y="10.52" width="7" height="7"/>
  </g>
</svg>
